<?xml version="1.0" encoding="UTF-8"?>
<svg xmlns="http://www.w3.org/2000/svg" width="28" height="28" viewBox="0 0 28 28" fill="none">
  <path d="M9.33331 16.3333C9.33331 16.3333 11.0833 18.6666 14 18.6666C16.9166 18.6666 18.6666 16.3333 18.6666 16.3333M19.8333 10.78C19.3725 11.3458 18.7425 11.6666 18.0833 11.6666C17.4241 11.6666 16.8116 11.3458 16.3333 10.78M11.6666 10.78C11.2058 11.3458 10.5758 11.6666 9.91665 11.6666C9.25748 11.6666 8.64498 11.3458 8.16665 10.78M25.6666 14C25.6666 20.4433 20.4433 25.6666 14 25.6666C7.55666 25.6666 2.33331 20.4433 2.33331 14C2.33331 7.55666 7.55666 2.33331 14 2.33331C20.4433 2.33331 25.6666 7.55666 25.6666 14Z" stroke="white" stroke-width="2" stroke-linecap="round" stroke-linejoin="round"></path>
</svg>
