<svg width="32" height="32" viewBox="0 0 32 32" fill="none" xmlns="http://www.w3.org/2000/svg">
<g clip-path="url(#clip0_12103_2242)">
<path d="M15.2613 2.57575C15.5346 1.91872 16.4654 1.91871 16.7387 2.57575L20.0444 10.5237C20.1596 10.8007 20.4201 10.99 20.7191 11.0139L29.2996 11.7018C30.0089 11.7587 30.2966 12.6439 29.7561 13.1068L23.2187 18.7068C22.9909 18.902 22.8914 19.2082 22.961 19.5L24.9583 27.8731C25.1234 28.5653 24.3704 29.1124 23.7631 28.7415L16.417 24.2545C16.161 24.0981 15.839 24.0981 15.583 24.2545L8.2369 28.7415C7.62962 29.1124 6.87661 28.5653 7.04172 27.8731L9.03902 19.5C9.10862 19.2082 9.00913 18.902 8.78129 18.7068L2.24386 13.1068C1.70343 12.6439 1.99105 11.7587 2.70037 11.7018L11.2809 11.0139C11.5799 10.99 11.8404 10.8007 11.9556 10.5237L15.2613 2.57575Z" fill="#F2F4F7"/>
<g clip-path="url(#clip1_12103_2242)">
<path d="M15.2613 2.57575C15.5346 1.91872 16.4654 1.91871 16.7387 2.57575L20.0444 10.5237C20.1596 10.8007 20.4201 10.99 20.7191 11.0139L29.2996 11.7018C30.0089 11.7587 30.2966 12.6439 29.7561 13.1068L23.2187 18.7068C22.9909 18.902 22.8914 19.2082 22.961 19.5L24.9583 27.8731C25.1234 28.5653 24.3704 29.1124 23.7631 28.7415L16.417 24.2545C16.161 24.0981 15.839 24.0981 15.583 24.2545L8.2369 28.7415C7.62962 29.1124 6.87661 28.5653 7.04172 27.8731L9.03902 19.5C9.10862 19.2082 9.00913 18.902 8.78129 18.7068L2.24386 13.1068C1.70343 12.6439 1.99105 11.7587 2.70037 11.7018L11.2809 11.0139C11.5799 10.99 11.8404 10.8007 11.9556 10.5237L15.2613 2.57575Z" fill="#FDB022"/>
</g>
</g>
<defs>
<clipPath id="clip0_12103_2242">
<rect width="32" height="32" fill="white"/>
</clipPath>
<clipPath id="clip1_12103_2242">
<rect width="32" height="32" fill="white"/>
</clipPath>
</defs>
</svg>
