<svg width="20" height="20" viewBox="0 0 20 20" fill="none" xmlns="http://www.w3.org/2000/svg">
<path d="M13.3334 10.7503V14.2503C13.3334 17.167 12.1667 18.3337 9.25002 18.3337H5.75002C2.83335 18.3337 1.66669 17.167 1.66669 14.2503V10.7503C1.66669 7.83366 2.83335 6.66699 5.75002 6.66699H9.25002C12.1667 6.66699 13.3334 7.83366 13.3334 10.7503Z" stroke="#101828" stroke-width="1.5" stroke-linecap="round" stroke-linejoin="round"/>
<path d="M18.3334 5.75033V9.25033C18.3334 12.167 17.1667 13.3337 14.25 13.3337H13.3334V10.7503C13.3334 7.83366 12.1667 6.66699 9.25002 6.66699H6.66669V5.75033C6.66669 2.83366 7.83335 1.66699 10.75 1.66699H14.25C17.1667 1.66699 18.3334 2.83366 18.3334 5.75033Z" stroke="#101828" stroke-width="1.5" stroke-linecap="round" stroke-linejoin="round"/>
</svg>
