<svg width="20" height="20" viewBox="0 0 20 20" fill="none" xmlns="http://www.w3.org/2000/svg">
<path fill-rule="evenodd" clip-rule="evenodd" d="M7.92185 2.33515C7.93181 2.34179 7.94181 2.34846 7.95183 2.35514L16.7424 8.21555C16.9968 8.38508 17.2326 8.54228 17.4138 8.68835C17.6028 8.8408 17.8256 9.05219 17.9539 9.36145C18.1234 9.7702 18.1234 10.2296 17.9539 10.6383C17.8256 10.9476 17.6028 11.159 17.4138 11.3114C17.2326 11.4575 16.9968 11.6147 16.7425 11.7842L7.92188 17.6646C7.61097 17.8719 7.33141 18.0583 7.09419 18.1869C6.8568 18.3155 6.53096 18.4625 6.15065 18.4398C5.66419 18.4108 5.21481 18.1703 4.9208 17.7816C4.69095 17.4778 4.63252 17.1251 4.60788 16.8563C4.58327 16.5876 4.58329 16.2516 4.58331 15.8779L4.58332 4.15792C4.58332 4.14587 4.58332 4.13386 4.58331 4.12188C4.58329 3.74822 4.58327 3.41222 4.60788 3.14354C4.63252 2.87466 4.69095 2.52199 4.9208 2.21815C5.21481 1.8295 5.66419 1.589 6.15065 1.55996C6.53096 1.53725 6.8568 1.68426 7.09419 1.81291C7.3314 1.94146 7.61096 2.12786 7.92185 2.33515Z" fill="white"/>
</svg>
