<?xml version="1.0" encoding="UTF-8"?>
<svg xmlns="http://www.w3.org/2000/svg" width="28" height="28" viewBox="0 0 28 28" fill="none">
  <path d="M25.6666 24.5V22.1667C25.6666 19.9922 24.1794 18.1651 22.1666 17.647M18.0833 3.83922C19.7935 4.5315 21 6.2082 21 8.16667C21 10.1251 19.7935 11.8018 18.0833 12.4941M19.8333 24.5C19.8333 22.3256 19.8333 21.2384 19.4781 20.3808C19.0044 19.2373 18.096 18.3289 16.9525 17.8552C16.0949 17.5 15.0077 17.5 12.8333 17.5H9.33331C7.15892 17.5 6.07172 17.5 5.21412 17.8552C4.07066 18.3289 3.16218 19.2373 2.68854 20.3808C2.33331 21.2384 2.33331 22.3256 2.33331 24.5M15.75 8.16667C15.75 10.744 13.6606 12.8333 11.0833 12.8333C8.50598 12.8333 6.41665 10.744 6.41665 8.16667C6.41665 5.58934 8.50598 3.5 11.0833 3.5C13.6606 3.5 15.75 5.58934 15.75 8.16667Z" stroke="white" stroke-width="2" stroke-linecap="round" stroke-linejoin="round"></path>
</svg>
